<svg xmlns="http://www.w3.org/2000/svg" fill-rule="evenodd" stroke-linejoin="round" stroke-miterlimit="2" clip-rule="evenodd" viewBox="0 0 64 64" id="letterboxd"><path fill="none" d="M0 0h64v64H0z"></path><path fill="#9a662b" d="m40 38 1.426 1.426A11.983 11.983 0 0 1 32 44.001c-3.822 0-7.228-1.79-9.426-4.575L24.001 38a9.987 9.987 0 0 0 8 4.001 9.987 9.987 0 0 0 7.999-4Zm0-11.998a9.987 9.987 0 0 0-8-4.001 9.987 9.987 0 0 0-7.999 4.001l-1.426-1.426a11.983 11.983 0 0 1 9.426-4.575c3.82 0 7.227 1.79 9.425 4.575L40 26.002Z"></path><path fill="#9a662b" d="M15 20.001c-6.623 0-12 5.377-12 12s5.377 12 12 12 12-5.377 12-12-5.377-12-12-12zm8.5 6.733a9.943 9.943 0 0 1 1.5 5.267 9.943 9.943 0 0 1-1.5 5.267 9.943 9.943 0 0 1-1.5-5.267c0-1.932.55-3.737 1.5-5.267zM49 20.001c-6.622 0-12 5.377-12 12s5.378 12 12 12c6.624 0 12-5.377 12-12s-5.376-12-12-12zm-8.5 6.733a9.943 9.943 0 0 1 1.5 5.267 9.943 9.943 0 0 1-1.5 5.267 9.943 9.943 0 0 1-1.5-5.267c0-1.932.55-3.737 1.5-5.267z"></path></svg>