<?xml version="1.0" encoding="UTF-8" standalone="no"?>
<!DOCTYPE svg PUBLIC "-//W3C//DTD SVG 1.1//EN" "http://www.w3.org/Graphics/SVG/1.1/DTD/svg11.dtd">
<svg class="logo" viewBox="0.00 0.00 3067.00 682.00" xmlns="http://www.w3.org/2000/svg">
<path fill="#9a662b" d="
  M 2505.25 482.25
  A 0.38 0.37 -38.3 0 0 2505.34 481.52
  C 2453.00 464.14 2400.22 441.93 2355.18 409.68
  C 2324.07 387.41 2294.53 355.58 2284.28 317.76
  C 2281.84 308.75 2278.99 300.16 2277.83 290.71
  C 2277.03 284.14 2275.63 277.64 2275.31 271.02
  Q 2275.16 268.02 2274.73 264.63
  C 2272.29 245.48 2274.44 231.15 2285.02 215.17
  C 2337.60 135.70 2421.44 74.66 2511.95 45.71
  C 2560.22 30.28 2611.31 24.76 2661.38 34.06
  C 2739.24 48.51 2799.69 103.19 2831.88 174.09
  Q 2850.27 214.58 2858.83 258.24
  C 2874.11 336.12 2869.17 422.61 2838.47 498.97
  A 0.96 0.95 16.4 0 0 2839.18 500.26
  Q 2929.29 517.01 3020.13 530.48
  C 3023.61 531.00 3030.17 532.10 3033.14 534.02
  C 3045.01 541.70 3044.02 560.11 3030.73 565.55
  Q 3026.86 567.14 3017.38 567.41
  C 2999.00 567.93 2980.63 567.61 2962.25 567.82
  Q 2923.40 568.27 2884.56 568.52
  Q 2878.73 568.56 2873.01 567.58
  Q 2840.71 562.10 2808.71 556.09
  A 2.04 2.04 0.0 0 0 2806.68 556.90
  C 2777.14 598.22 2728.84 633.35 2676.23 634.89
  C 2633.40 636.14 2597.85 609.41 2579.41 572.23
  A 2.50 2.50 0.0 0 0 2577.14 570.84
  Q 2429.23 571.84 2280.50 572.74
  C 2277.37 572.76 2271.84 570.98 2268.02 569.65
  Q 2224.14 554.29 2181.67 535.34
  C 2138.04 515.88 2096.17 492.67 2058.46 462.79
  C 2025.09 436.33 1993.73 399.26 1980.17 358.50
  C 1978.20 352.57 1975.80 346.64 1974.39 340.69
  C 1971.89 330.09 1969.17 319.27 1967.79 308.72
  Q 1963.87 278.87 1964.17 248.75
  Q 1964.30 236.18 1966.46 231.50
  C 1970.96 221.70 1980.57 221.06 1991.38 221.05
  Q 2106.21 220.93 2221.06 221.03
  C 2232.89 221.04 2243.12 221.47 2247.39 232.86
  Q 2248.87 236.80 2249.18 249.31
  C 2249.50 262.46 2250.22 275.23 2251.80 288.28
  C 2253.68 303.83 2244.67 311.51 2229.92 311.51
  Q 2152.61 311.49 2074.80 311.51
  Q 2073.92 311.51 2073.54 312.71
  Q 2073.39 313.20 2073.69 314.52
  Q 2077.26 330.33 2084.07 345.06
  Q 2084.28 345.51 2084.77 345.51
  Q 2167.48 345.47 2250.18 345.53
  C 2257.92 345.54 2262.60 348.89 2267.68 355.10
  C 2282.45 373.15 2300.17 387.76 2321.23 402.01
  C 2327.19 406.04 2329.61 414.27 2328.03 421.13
  C 2325.64 431.55 2316.48 434.87 2306.03 434.93
  Q 2236.44 435.29 2167.95 435.26
  Q 2165.69 435.26 2167.59 436.48
  Q 2209.00 462.91 2254.48 482.49
  C 2257.94 483.98 2262.66 483.59 2266.73 483.58
  Q 2332.34 483.39 2373.00 483.52
  C 2376.37 483.53 2379.88 483.01 2382.75 483.01
  Q 2438.00 483.07 2493.25 482.83
  Q 2499.35 482.81 2505.25 482.25
  Z
  M 2798.76 272.50
  Q 2799.01 273.05 2798.45 273.26
  C 2757.60 288.72 2721.64 319.38 2694.21 352.66
  C 2669.70 382.41 2649.07 415.87 2643.22 454.62
  A 1.61 1.60 -78.6 0 0 2644.40 456.41
  L 2713.77 474.15
  Q 2714.74 474.40 2715.19 473.50
  C 2727.14 449.38 2733.23 420.19 2734.58 393.43
  C 2734.69 391.17 2735.16 388.51 2735.21 386.00
  Q 2735.63 362.98 2731.88 340.80
  A 2.36 2.35 -27.7 0 1 2732.52 338.76
  Q 2742.63 328.54 2754.39 319.66
  Q 2791.02 292.04 2831.23 269.23
  A 0.78 0.77 43.5 0 0 2831.19 267.87
  C 2818.72 261.58 2804.79 259.47 2790.75 258.53
  Q 2755.75 256.18 2722.06 263.47
  Q 2713.28 265.37 2705.46 269.70
  A 0.80 0.79 -31.2 0 1 2704.42 269.45
  C 2687.63 244.24 2646.54 233.85 2618.76 234.00
  Q 2577.94 234.23 2540.63 252.73
  C 2529.57 258.21 2518.06 266.27 2507.94 273.69
  C 2476.59 296.71 2445.01 322.80 2417.66 351.30
  A 0.76 0.76 0.0 0 0 2417.69 352.38
  Q 2432.54 366.51 2449.56 377.70
  C 2485.39 401.24 2530.01 419.48 2572.19 433.91
  A 1.11 1.11 0.0 0 0 2573.59 433.24
  C 2592.97 380.81 2629.39 335.49 2675.16 303.67
  C 2705.80 282.37 2739.77 271.20 2776.73 271.41
  Q 2787.01 271.47 2797.25 271.83
  Q 2798.46 271.87 2798.76 272.50
  Z"
/>
<path fill="#9a662b" d="
  M 224.90 502.02
  A 0.69 0.69 0.0 0 0 225.41 501.08
  C 189.31 413.24 187.55 307.93 215.64 217.84
  C 245.42 122.31 312.95 47.78 416.49 33.38
  Q 428.48 31.71 433.00 31.93
  C 435.49 32.05 437.39 31.25 439.35 31.25
  Q 451.58 31.26 463.80 31.24
  C 465.79 31.24 467.71 31.78 469.57 31.88
  Q 486.28 32.82 500.75 35.25
  C 612.70 54.07 719.40 125.98 781.02 220.54
  A 0.98 0.98 0.0 0 0 781.83 220.97
  C 814.35 221.05 846.90 220.36 879.32 221.84
  C 919.01 223.65 957.62 232.02 980.27 267.19
  Q 1000.66 298.86 988.53 336.27
  C 968.58 397.80 890.42 423.12 833.76 431.80
  A 1.33 1.32 -4.5 0 0 832.63 433.12
  C 832.70 451.51 820.27 465.84 808.90 477.15
  Q 795.27 490.72 779.61 501.80
  A 0.26 0.26 0.0 0 0 779.84 502.26
  C 829.75 487.07 879.18 468.84 926.37 446.44
  C 977.67 422.09 1024.21 391.36 1060.63 348.73
  C 1088.88 315.66 1108.48 274.08 1123.93 233.76
  C 1127.50 224.45 1136.78 221.04 1147.17 221.02
  Q 1178.33 220.98 1209.50 221.01
  C 1217.09 221.01 1226.21 223.87 1229.59 231.19
  Q 1234.06 240.85 1245.96 270.73
  C 1257.49 299.72 1266.04 326.62 1272.35 356.27
  C 1279.70 390.86 1281.23 426.89 1276.99 461.50
  C 1272.95 494.42 1263.50 528.59 1252.16 560.50
  C 1248.21 571.61 1240.76 575.22 1229.25 575.19
  Q 1172.88 575.03 1116.51 574.69
  C 1109.54 574.65 1101.08 573.74 1096.45 567.96
  C 1090.69 560.78 1091.48 551.26 1097.22 544.40
  Q 1111.75 527.03 1124.66 508.43
  Q 1126.04 506.44 1126.65 504.12
  Q 1126.81 503.51 1126.18 503.51
  Q 1062.49 503.48 998.83 503.51
  C 994.75 503.51 986.12 502.34 981.21 504.55
  C 922.70 530.94 862.11 551.57 800.43 569.16
  C 793.16 571.24 785.55 573.73 777.89 573.70
  C 684.39 573.31 590.88 573.11 497.38 572.35
  C 493.91 572.33 490.41 571.28 487.02 570.61
  A 1.23 1.22 18.4 0 0 485.67 571.28
  C 469.45 605.60 439.09 631.89 400.01 636.50
  Q 395.74 637.01 380.25 636.48
  Q 370.25 636.14 354.11 631.03
  Q 308.85 616.68 276.27 582.22
  Q 265.09 570.40 258.05 560.20
  C 256.95 558.60 256.60 557.79 254.40 558.22
  Q 222.52 564.44 190.49 569.69
  Q 184.49 570.68 178.33 570.64
  Q 110.69 570.28 43.05 569.80
  C 39.01 569.77 32.71 569.04 29.19 567.07
  C 17.83 560.72 17.10 543.80 28.16 536.90
  C 32.09 534.45 40.04 533.31 44.96 532.56
  Q 135.36 518.96 224.90 502.02
  Z
  M 372.43 295.35
  C 424.45 325.72 467.13 375.18 488.80 431.63
  C 489.14 432.52 489.45 434.22 490.19 435.42
  Q 490.46 435.85 490.94 435.69
  Q 532.03 421.93 571.24 403.48
  C 596.87 391.42 624.48 375.55 646.35 355.35
  Q 647.15 354.62 646.40 353.84
  C 615.53 321.55 580.11 292.26 543.48 266.90
  C 509.95 243.70 467.69 232.32 427.03 237.11
  C 425.44 237.29 423.07 238.11 420.88 237.81
  Q 420.45 237.75 420.21 238.12
  Q 419.81 238.72 419.21 238.70
  A 0.94 0.00 2.5 0 0 418.29 238.66
  C 396.23 242.69 371.39 252.84 359.04 271.60
  Q 358.73 272.07 358.25 271.77
  Q 351.21 267.32 344.02 265.69
  Q 302.65 256.27 259.49 261.75
  Q 245.57 263.52 232.53 269.41
  A 0.89 0.89 0.0 0 0 232.45 270.99
  C 266.39 290.50 300.78 312.36 330.02 338.71
  Q 332.07 340.56 331.73 342.73
  Q 321.44 408.65 345.55 469.45
  Q 346.26 471.23 348.74 475.51
  Q 349.05 476.05 349.65 475.90
  L 419.85 457.86
  A 0.82 0.82 0.0 0 0 420.46 456.95
  C 416.73 428.52 403.01 400.20 386.72 376.83
  C 356.99 334.16 314.30 293.82 265.08 275.12
  A 0.56 0.56 0.0 0 1 265.23 274.04
  C 279.00 272.97 293.50 272.66 306.90 274.14
  Q 342.88 278.10 372.43 295.35
  Z
  M 882.75 321.04
  C 882.96 313.86 872.45 312.24 867.40 312.11
  Q 826.66 311.07 786.15 311.62
  A 0.92 0.92 0.0 0 0 785.27 312.32
  Q 779.44 335.13 766.52 354.79
  A 0.78 0.76 43.6 0 0 766.55 355.68
  Q 766.97 356.24 767.47 355.88
  Q 767.90 355.56 768.43 355.58
  Q 800.42 356.45 832.32 354.40
  C 848.15 353.38 863.39 348.86 874.43 337.23
  C 878.66 332.78 882.57 327.06 882.75 321.04
  Z
  M 1161.77 413.47
  A 1.15 1.13 2.8 0 0 1162.90 412.46
  Q 1165.50 389.54 1164.18 366.47
  A 0.75 0.75 0.0 0 0 1162.80 366.10
  C 1151.72 383.03 1137.27 398.75 1122.89 412.86
  A 0.45 0.45 0.0 0 0 1123.20 413.63
  L 1161.77 413.47
  Z
  M 677.41 442.51
  C 670.23 443.35 662.65 440.40 655.78 443.76
  C 606.88 467.75 554.97 485.81 502.65 500.81
  Q 502.13 500.96 502.11 501.50
  C 501.74 513.51 501.12 523.05 498.90 532.43
  A 0.44 0.44 0.0 0 0 499.48 532.94
  C 546.81 515.42 594.54 494.79 638.67 469.58
  C 652.43 461.72 665.07 453.01 677.85 443.62
  A 0.62 0.62 0.0 0 0 677.41 442.51
  Z"
/>
<path fill="#9a662b" d="
  M 1861.76 227.69
  C 1897.07 239.96 1924.37 272.34 1935.01 308.00
  Q 1937.38 315.94 1939.72 323.94
  Q 1941.03 328.42 1940.73 331.73
  C 1939.41 346.54 1928.66 348.43 1915.39 349.06
  Q 1887.89 350.37 1860.51 351.32
  A 0.34 0.34 0.0 0 0 1860.43 351.99
  C 1883.57 358.05 1908.31 365.49 1928.81 376.96
  Q 1963.49 396.37 1999.56 425.94
  Q 2022.09 444.41 2044.41 463.11
  C 2058.47 474.89 2071.27 486.19 2082.42 499.85
  C 2094.07 514.12 2103.19 533.34 2091.85 550.69
  C 2087.71 557.02 2083.42 561.32 2076.24 564.57
  Q 2062.81 570.66 2048.26 573.32
  Q 2022.07 578.11 1995.50 579.04
  C 1963.47 580.16 1931.23 579.87 1900.26 577.95
  C 1866.37 575.85 1832.75 570.00 1799.24 562.02
  C 1749.27 550.13 1698.74 525.31 1669.43 481.34
  Q 1663.71 472.77 1660.33 465.44
  C 1655.88 455.79 1657.33 442.82 1667.48 438.02
  Q 1671.18 436.27 1682.29 435.39
  Q 1712.67 432.97 1743.03 430.54
  C 1756.70 429.45 1762.00 431.32 1769.84 441.63
  C 1778.82 453.45 1789.31 462.99 1802.44 470.11
  C 1837.91 489.34 1877.90 492.98 1917.48 488.05
  Q 1921.47 487.55 1924.98 486.09
  A 0.96 0.95 58.6 0 0 1925.34 484.59
  C 1922.69 481.44 1920.31 478.02 1917.33 475.35
  C 1902.00 461.63 1883.80 454.63 1863.75 449.51
  Q 1848.64 445.65 1814.72 439.93
  Q 1783.66 434.68 1753.27 426.42
  C 1730.05 420.11 1711.75 413.12 1693.09 400.12
  C 1673.86 386.72 1659.14 368.54 1652.37 346.00
  C 1650.50 339.77 1649.63 332.54 1648.64 325.61
  C 1646.61 311.27 1651.14 290.55 1657.97 277.73
  C 1677.58 240.88 1712.14 224.73 1752.04 218.50
  C 1788.72 212.78 1826.60 215.46 1861.76 227.69
  Z
  M 1752.62 313.26
  C 1735.64 324.41 1803.81 339.04 1807.20 339.75
  Q 1824.61 343.41 1841.74 347.43
  A 0.29 0.29 0.0 0 0 1842.00 346.93
  C 1839.01 344.25 1837.74 341.90 1836.42 337.69
  C 1834.58 331.80 1831.15 326.46 1827.93 321.23
  C 1816.90 303.30 1789.41 304.11 1771.23 306.42
  Q 1761.08 307.70 1752.62 313.26
  Z"
/>
<path fill="#9a662b" d="
  M 1285.39 572.76
  C 1277.40 568.83 1274.19 559.96 1276.81 551.65
  Q 1277.82 548.42 1281.19 544.29
  C 1301.32 519.51 1319.80 493.50 1332.64 464.09
  C 1333.99 461.00 1335.57 458.29 1336.79 455.12
  C 1338.73 450.08 1341.91 445.53 1343.12 440.28
  Q 1344.60 433.81 1347.21 427.71
  C 1349.43 422.51 1350.17 417.41 1351.68 412.13
  C 1354.44 402.46 1356.55 393.55 1358.16 384.20
  Q 1362.98 356.09 1364.04 341.81
  Q 1367.44 295.97 1366.97 250.00
  C 1366.80 233.84 1371.89 223.76 1389.50 223.75
  Q 1421.00 223.74 1452.50 223.75
  Q 1454.74 223.75 1458.53 225.03
  C 1469.15 228.60 1471.47 237.27 1471.51 247.50
  C 1471.66 286.52 1471.01 315.27 1470.14 341.08
  C 1469.69 354.30 1468.37 366.98 1467.36 379.92
  C 1466.84 386.58 1465.83 394.06 1465.25 401.18
  C 1464.77 407.02 1463.52 413.06 1462.92 419.07
  C 1462.16 426.65 1460.88 432.68 1459.37 439.56
  C 1458.84 441.97 1459.25 444.30 1458.69 446.68
  Q 1454.20 465.83 1449.76 484.84
  A 0.55 0.55 0.0 0 0 1450.30 485.51
  Q 1551.03 485.48 1651.99 485.52
  Q 1660.74 485.53 1665.89 491.40
  Q 1668.36 494.22 1672.04 504.06
  Q 1680.67 527.08 1689.26 544.53
  C 1692.01 550.11 1693.97 554.80 1692.52 560.97
  C 1689.39 574.22 1679.21 574.92 1666.56 575.00
  C 1547.15 575.75 1427.68 575.25 1308.25 575.18
  C 1300.45 575.18 1291.65 575.84 1285.39 572.76
  Z"
/>
</svg>